<svg width="142" height="376" viewBox="0 0 142 376" fill="none" xmlns="http://www.w3.org/2000/svg">
<path fill-rule="evenodd" clip-rule="evenodd" d="M46.8 93.6C47.0674 93.6 47.3342 93.5978 47.6005 93.5933C47.6002 93.6622 47.6001 93.7311 47.6001 93.8C47.6001 102.366 49.9013 110.394 53.9191 117.3C49.9013 124.206 47.6001 132.234 47.6001 140.8C47.6001 149.366 49.9013 157.394 53.9191 164.3C49.9013 171.206 47.6001 179.234 47.6001 187.8C47.6001 196.366 49.9013 204.394 53.9191 211.3C49.9013 218.206 47.6001 226.234 47.6001 234.8C47.6001 243.366 49.9013 251.394 53.9191 258.3C49.9013 265.206 47.6001 273.234 47.6001 281.8C47.6001 307.647 68.5532 328.6 94.4001 328.6C120.247 328.6 141.2 307.647 141.2 281.8C141.2 273.234 138.899 265.206 134.881 258.3C138.899 251.394 141.2 243.366 141.2 234.8C141.2 226.234 138.899 218.206 134.881 211.3C138.899 204.394 141.2 196.366 141.2 187.8C141.2 179.234 138.899 171.206 134.881 164.3C138.899 157.394 141.2 149.366 141.2 140.8C141.2 132.234 138.899 124.206 134.881 117.3C138.899 110.394 141.2 102.366 141.2 93.8C141.2 85.2344 138.899 77.2062 134.881 70.3C138.899 63.3938 141.2 55.3656 141.2 46.8C141.2 20.9531 120.247 0 94.4001 0C85.7101 0 77.5733 2.36846 70.6001 6.49508C63.6268 2.36846 55.49 0 46.8 0C20.9531 0 0 20.9531 0 46.8C0 72.6469 20.9531 93.6 46.8 93.6ZM94.4001 329C77.1188 329 62.0252 338.367 53.9191 352.3C62.0252 366.233 77.1188 375.6 94.4001 375.6C111.681 375.6 126.775 366.233 134.881 352.3C126.775 338.367 111.681 329 94.4001 329Z" fill="#007CB6" style="fill:#007CB6;fill:color(display-p3 0.0000 0.4863 0.7137);fill-opacity:1;"/>
</svg>
